<svg xmlns="http://www.w3.org/2000/svg" height="280" width="280" xmlns:xlink="http://www.w3.org/1999/xlink" viewBox="0 0 280 280"><title>credit-card-category-spritesheet</title><defs><path id="a" d="M43.379 44.731H0V.468h43.379z"/></defs><g fill-rule="evenodd" fill="none"><path fill="#D8483D" d="M18.859 31.904c0 .647.521 1.172 1.165 1.172h22.161a1.17 1.17 0 0 0 1.167-1.172v-7.388H18.86v7.388M43.352 19.794a1.17 1.17 0 0 0-1.167-1.173H20.024c-.644 0-1.165.525-1.165 1.173v1.076h24.493v-1.076"/><path fill="#2C3F4F" d="M18.859 20.572H43.35v3.944H18.859z"/><path fill="#F2F5F3" d="M20.803 26.108h4.924v3.182h-4.924z"/><path fill="#B0392F" d="M27.542 26.305h13.476v.78H27.542zM27.574 28.095h13.477v.781H27.574z"/><path fill="#69B96D" d="M28.663 42.673a1.34 1.34 0 0 0 1.335 1.343h25.385a1.34 1.34 0 0 0 1.336-1.343v-8.461H28.663v8.461M56.719 28.804a1.34 1.34 0 0 0-1.336-1.344H29.998a1.34 1.34 0 0 0-1.335 1.344v1.233h28.056v-1.233"/><path fill="#2C3F4F" d="M28.663 29.693H56.72v4.519H28.663z"/><path fill="#F2F5F3" d="M30.89 36.037h5.641v3.644H30.89z"/><path fill="#4A914F" d="M38.61 36.261h15.437v.894H38.61zM38.646 38.313h15.437v.892H38.646z"/><path fill="#E7B64B" d="M13.339 50.768c0 .772.622 1.4 1.39 1.4h26.415c.767 0 1.39-.628 1.39-1.4v-8.804H13.34v8.804M42.534 36.334c0-.772-.623-1.397-1.39-1.397H14.728c-.767 0-1.39.625-1.39 1.397v1.283h29.196v-1.283"/><path fill="#2C3F4F" d="M13.339 37.263h29.195v4.7H13.339z"/><path fill="#F2F5F3" d="M15.655 43.862h5.87v3.791h-5.87z"/><path fill="#B68832" d="M23.689 44.095h16.065v.93H23.689zM23.726 46.23h16.066v.931H23.726z"/><g><path fill="#2C3F4F" d="M19.154 107.489h34.093v19.42H19.154z"/><path fill="#283641" d="M18.58 102.485h35.24v5.886H18.58z"/><path fill="#3376A6" d="M25.695 108.371H21.11l4.776-6.18h4.585l-4.776 6.18M36.391 108.517h-4.583l4.774-6.178h4.584l-4.775 6.178M47.087 108.517h-4.584l4.774-6.178h4.584l-4.774 6.178"/><path fill="#283641" d="M50.3 87.77l-31.771 15.658-2.479-5.306 31.77-15.658 2.48 5.307"/><path fill="#3376A6" d="M24.943 100.266l-4.133 2.038 1.703-7.693 4.133-2.037-1.703 7.692M34.648 95.647l-4.132 2.037 1.702-7.693 4.132-2.036-1.702 7.692M44.29 90.894l-4.132 2.037 1.704-7.692 4.132-2.038-1.704 7.693M24.167 112.196h23.78v9.417h-23.78z"/></g><g><path fill="#2C3F4F" d="M49.534 192.064a2.878 2.878 0 0 1-2.869 2.887 2.878 2.878 0 0 1-2.868-2.887 2.877 2.877 0 0 1 2.868-2.887 2.877 2.877 0 0 1 2.869 2.887"/><path fill="#243541" d="M48.143 191.181c0 .869-.7 1.574-1.565 1.574a1.57 1.57 0 0 1-1.564-1.574c0-.871.7-1.576 1.564-1.576a1.57 1.57 0 0 1 1.565 1.576"/><path fill="#2C3F4F" d="M32.44 192.006c0 1.594-1.284 2.887-2.868 2.887s-2.868-1.293-2.868-2.887c0-1.595 1.284-2.887 2.868-2.887s2.868 1.292 2.868 2.887"/><path fill="#243541" d="M31.05 191.123c0 .869-.7 1.574-1.565 1.574a1.57 1.57 0 0 1-1.564-1.574c0-.871.7-1.576 1.564-1.576a1.57 1.57 0 0 1 1.565 1.576"/><path fill="#D87637" d="M40.945 159.72h8.671v10.421h-8.671z"/><path fill="#2C3F4F" d="M35.625 170.834l-8.494-2.321 3.086-11.44 8.493 2.32-3.085 11.441"/><path fill="#3376A6" d="M35.898 162.78c0 1.548-1.246 2.802-2.783 2.802s-2.783-1.254-2.783-2.802c0-1.546 1.246-2.801 2.783-2.801s2.783 1.255 2.783 2.801"/><path fill="#EAC03A" d="M55.182 163.106l-3.864-1.702v-1.067h-.556v1.063l-3.873 1.706h-.055v7.035h8.347v-7.033l.001-.002"/><path fill="#D8483D" d="M41.35 162.749c-.739 0-1.516.326-2.013.8a3.05 3.05 0 0 0-1.967-.76 2.778 2.778 0 0 0-2.699 3.401c.132.872.746 2.387 2.234 4.457 0 0 .504.852 1.427.852.382 0 .741-.101 1.056-.341.3.212.641.302 1.001.302.922 0 1.426-.852 1.426-.852 1.488-2.07 2.102-3.583 2.235-4.456a2.779 2.779 0 0 0-2.7-3.403"/><path fill="#51A75D" d="M39.255 163.639s-.692-2.477 2-3.407c0 0 .846 2.788-2 3.407"/><path fill="#875C97" d="M32.662 167.601c0 2.59-2.086 4.69-4.659 4.69-2.574 0-4.66-2.1-4.66-4.69 0-2.59 2.086-4.69 4.66-4.69 2.573 0 4.659 2.1 4.659 4.69"/><path stroke="#BBBBB8" stroke-width="2" d="M26.817 189.285h22.312l2.414-7.102H26.074l-7.366-19.787h-3.824"/><path fill="#BBBBB8" d="M57.907 167.53H20.563l6.141 14.23 26.404.117z"/><path fill="#D8483D" d="M21.466 162.476c0 .825-.665 1.495-1.486 1.495h-6.313c-.82 0-1.486-.67-1.486-1.495 0-.826.665-1.496 1.486-1.496h6.313c.82 0 1.486.67 1.486 1.496"/></g><g><path fill="#D8483D" d="M43.09 232.196c-3.024 0-6.21 1.318-8.244 3.231-2.039-1.827-5.122-3.074-8.061-3.074-6.268 0-11.348 5.042-11.348 11.264 0 .854.104 1.685.286 2.485.541 3.525 3.057 9.642 9.154 18.006 0 0 2.066 3.445 5.847 3.445 1.562 0 3.038-.408 4.327-1.383 1.234.858 2.628 1.227 4.099 1.227 3.782 0 5.848-3.446 5.848-3.446 6.097-8.365 8.612-14.48 9.154-18.004.181-.801.286-1.632.286-2.486 0-6.221-5.08-11.265-11.348-11.265"/><path fill="#51A75D" d="M34.507 235.794s-2.836-10.012 8.195-13.768c0 0 3.468 11.265-8.195 13.768"/></g><g><path fill="#875C97" d="M116.76 96.151l-.227.001-2.719 5.042-3.111-4.875-3.111 4.875-3.291-4.954-.114.001-3.056 4.953-3.23-4.875-3.352 4.707-2.735-4.021-5.76 30.403h37.405l-6.699-31.257"/><path fill="#2C3F4F" d="M98.464 104.216h-2.808V92.849c-.067-.663-.303-4.232 1.98-6.804 1.521-1.714 3.755-2.582 6.642-2.582 2.365 0 4.281.755 5.693 2.244 2.547 2.688 2.438 6.828 2.412 7.358v10.895h-2.808l.003-11.018c.002-.03.173-3.413-1.663-5.338-.871-.915-2.061-1.358-3.637-1.358-2.044 0-3.57.55-4.532 1.636-1.618 1.822-1.297 4.684-1.294 4.714l.012.177v11.443"/><path fill="#613A7F" d="M98.939 104.886a2.027 2.027 0 0 1-2.035 2.018 2.027 2.027 0 0 1-2.034-2.018c0-1.112.91-2.016 2.034-2.016 1.124 0 2.035.904 2.035 2.016M112.844 104.886c0 1.114-.912 2.018-2.036 2.018s-2.034-.904-2.034-2.018c0-1.112.91-2.016 2.034-2.016s2.036.904 2.036 2.016"/></g><g><g transform="translate(153 82.376)"><mask id="b" fill="#fff"><use xlink:href="#a"/></mask><path fill="#E7EEEF" mask="url(#b)" d="M43.379 40.793a3.944 3.944 0 0 1-3.949 3.939H3.948A3.944 3.944 0 0 1 0 40.793V4.406A3.944 3.944 0 0 1 3.948.468H39.43a3.943 3.943 0 0 1 3.949 3.938v36.387z"/></g><path d="M192.431 82.844h-35.483A3.943 3.943 0 0 0 153 86.783v4.548h43.38v-4.548a3.944 3.944 0 0 0-3.949-3.939" fill="#2C3E50"/><path fill="#E74D3C" d="M159.332 87.425c0 .932-.758 1.688-1.692 1.688s-1.692-.756-1.692-1.688c0-.931.758-1.688 1.692-1.688s1.692.757 1.692 1.688"/><path fill="#71C172" d="M164.989 87.425c0 .932-.758 1.688-1.692 1.688s-1.692-.756-1.692-1.688c0-.931.758-1.688 1.692-1.688s1.692.757 1.692 1.688"/><path fill="#F0C32F" d="M170.647 87.425a1.69 1.69 0 0 1-1.692 1.688 1.69 1.69 0 0 1-1.693-1.688 1.69 1.69 0 0 1 1.693-1.688 1.69 1.69 0 0 1 1.692 1.688"/><path fill="#9163A9" d="M181.932 102.315l-.138.001-1.641 3.061-1.876-2.96-1.877 2.96-1.985-3.008-.069.001-1.844 3.007-1.949-2.96-2.022 2.858-1.65-2.442-3.475 18.46h22.567z"/><path fill="#31485F" d="M170.893 107.211H169.2v-6.9c-.041-.403-.184-2.57 1.194-4.132.918-1.041 2.265-1.568 4.007-1.568 1.427 0 2.583.459 3.434 1.363 1.537 1.632 1.471 4.145 1.457 4.468v6.615h-1.695l.002-6.69c0-.018.104-2.072-1.004-3.241-.525-.555-1.243-.825-2.194-.825-1.234 0-2.154.334-2.735.993-.975 1.107-.782 2.845-.78 2.862l.007.108v6.947z"/><path fill="#6D4193" d="M171.18 107.619c0 .677-.55 1.224-1.227 1.224a1.225 1.225 0 1 1 0-2.449c.677 0 1.227.55 1.227 1.225M179.569 107.619c0 .677-.551 1.224-1.228 1.224a1.225 1.225 0 1 1 0-2.449c.677 0 1.228.55 1.228 1.225"/></g><g><path fill="#BBBBB8" d="M256.139 100.181c0 6.638-5.321 12.02-11.883 12.02-6.563 0-11.884-5.382-11.884-12.02s5.321-12.02 11.884-12.02c6.562 0 11.883 5.382 11.883 12.02"/><path fill="#BBBBB8" d="M232.372 82.733h23.767v17.448h-23.767z"/><path fill="#B0392F" d="M247.322 96.95c-3.131 0-3.833-1.551-8.242-1.551-2.555 0-4.791 1.551-4.791 1.551l-.001 2.972.001.011v.377h.019c.203 5.316 4.515 9.564 9.819 9.564 5.305 0 9.617-4.248 9.819-9.564h.021v-4.768c-1.726.762-3.054 1.408-6.645 1.408"/><path fill="#BBBBB8" d="M242.85 111.102h2.556v13.57h-2.556z"/><path fill="#BBBBB8" d="M236.206 126.03h15.205s-.127-2.068-2.044-2.068h-11.245s-1.916.129-1.916 2.068M267.703 95.2c0-4.136-1.411-7.49-4.658-7.49-3.246 0-4.656 3.354-4.656 7.49 0 3.879 1.09 7.066 4.053 7.453l-.051 1.289-1.407 20.064s.305 2.626 2.138 2.626v-.016c1.813-.02 2.118-2.622 2.118-2.622l-1.147-16.371.022.089-.303-5.096c2.883-.48 3.891-3.611 3.891-7.416M222.182 96.816v.27c0 .01.008.015.01.023.077 2.966.505 5.224 2.962 5.544l-.052 1.289-1.406 20.064s.305 2.626 2.137 2.626v-.016c1.815-.02 2.12-2.622 2.12-2.622l-1.148-16.371.022.089-.303-5.096c3.668 0 3.139-5.603 3.139-5.603a25.54 25.54 0 0 0 0-.619V88.4c0-.161-.24-.293-.538-.293s-.539.132-.539.293v8.756c-.084.108-.28.185-.507.185-.257 0-.463-.099-.524-.229V88.4c0-.161-.244-.293-.539-.293-.3 0-.54.132-.54.293v8.684c-.042.145-.26.257-.534.257-.306 0-.553-.136-.553-.301l-.02-8.602c0-.162-.233-.293-.519-.293-.288 0-.52.131-.52.293l-.013 8.602c0 .165-.248.301-.552.301-.292 0-.524-.125-.545-.282v-8.627c0-.137-.233-.25-.519-.25-.287 0-.52.113-.52.25v8.384"/></g><g><path fill="#69B96D" d="M99.556 17.283a.777.777 0 0 1 1.073.242l6.385 10.093a.78.78 0 0 1-.241 1.075l-4.826 3.054a.778.778 0 0 1-1.074-.241l-6.385-10.094a.779.779 0 0 1 .242-1.075l4.826-3.054"/><path fill="#51A75D" d="M99.309 22.356a2.66 2.66 0 0 1 3.67.826 2.66 2.66 0 1 1-3.67-.826"/><path fill="#69B96D" d="M102.479 23.812l-.365.231c.174.301.275.643.282.869l-.556.171a1.91 1.91 0 0 0-.274-.858c-.146-.231-.334-.354-.494-.252-.145.091-.147.279-.03.655.164.538.173.993-.23 1.249-.364.23-.811.14-1.178-.275l-.364.23-.255-.403.34-.216a1.96 1.96 0 0 1-.259-.713l.541-.168c.02.136.052.412.255.733.174.275.337.281.439.216.126-.079.107-.298-.008-.724-.17-.606-.092-.952.287-1.192.349-.221.826-.16 1.222.292l.392-.248.255.403"/><path fill="#51A75D" d="M101.308 29.643a.562.562 0 1 1 .6.95.562.562 0 0 1-.6-.95M99.484 18.506a.563.563 0 1 1 .601.952.563.563 0 0 1-.601-.952M96.357 21.817a.562.562 0 1 0-.6-.95.562.562 0 0 0 .6.95M105.637 28.234a.563.563 0 1 0-.603-.952.563.563 0 0 0 .603.952"/><path fill="#69B96D" d="M106.202 14.022a.907.907 0 0 1 1.042.747l2.258 13.721a.906.906 0 0 1-.747 1.042l-6.559 1.081a.907.907 0 0 1-1.042-.747l-2.259-13.722a.907.907 0 0 1 .748-1.042l6.559-1.08"/><path fill="#51A75D" d="M103.633 19.346a3.098 3.098 0 1 1 1.006 6.115 3.098 3.098 0 0 1-1.006-6.115"/><path fill="#69B96D" d="M106.37 22.349l-.495.081c.05.402.002.814-.094 1.06l-.673-.069a2.21 2.21 0 0 0 .096-1.045c-.052-.314-.197-.53-.415-.495-.197.033-.284.233-.33.69-.068.65-.265 1.143-.814 1.233-.495.082-.933-.219-1.138-.83l-.494.081-.09-.549.462-.076a2.311 2.311 0 0 1 .046-.882l.657.067c-.04.154-.131.465-.059.9.061.374.233.455.372.432.17-.028.25-.27.32-.78.093-.727.333-1.062.85-1.147.474-.078.957.204 1.176.868l.533-.088.09.549"/><path fill="#51A75D" d="M102.466 28.066a.654.654 0 1 1 .211 1.29.654.654 0 0 1-.211-1.29M105.57 15.3a.655.655 0 1 1 .214 1.292.655.655 0 0 1-.214-1.292M100.714 17.427a.654.654 0 1 0-.212-1.29.654.654 0 0 0 .212 1.29M107.747 28.524a.655.655 0 1 0-.213-1.293.655.655 0 0 0 .213 1.293"/><path fill="#69B96D" d="M114.073 18.95c.463.189.685.718.496 1.182l-5.265 12.87a.908.908 0 0 1-1.183.496l-6.152-2.52a.908.908 0 0 1-.496-1.182l5.265-12.87a.907.907 0 0 1 1.182-.496l6.153 2.519"/><path fill="#51A75D" d="M109.096 22.137a3.1 3.1 0 0 1-2.347 5.736 3.1 3.1 0 0 1 2.347-5.736"/><path fill="#69B96D" d="M109.853 26.129l-.464-.19c-.168.368-.425.694-.635.853l-.538-.412c.222-.184.479-.469.63-.839.121-.294.111-.555-.094-.639-.185-.076-.364.049-.642.414-.399.519-.825.834-1.34.624-.464-.19-.68-.676-.533-1.304l-.464-.19.21-.514.434.177a2.29 2.29 0 0 1 .502-.727l.524.4c-.115.112-.355.328-.523.737-.143.35-.039.509.091.563.16.065.355-.1.682-.497.46-.57.84-.73 1.324-.531.445.182.709.675.547 1.356l.5.204-.211.515"/><path fill="#51A75D" d="M103.533 28.952a.654.654 0 1 1-.496 1.21.654.654 0 0 1 .496-1.21M112.865 19.707a.655.655 0 1 1-.496 1.211.655.655 0 0 1 .496-1.211M107.615 18.972a.654.654 0 1 0 .497-1.21.654.654 0 0 0-.497 1.21M107.791 32.11a.654.654 0 1 0 .496-1.211.654.654 0 0 0-.496 1.211"/><path fill="#D69F59" d="M121.245 47.274C119.9 35.918 109.55 29.231 109.55 29.231l-8.626.288.009.037-.584-.037c-5.983 4.938-9.056 9.267-10.283 12.906a15.878 15.878 0 0 0-.94 4.181c-.09.889-.06 1.392-.06 1.392 0 8.816 3.415 8.981 15.922 8.981 12.795 0 16.206.075 16.206-8.334l.03-.004s.002-.126-.005-.361a16.012 16.012 0 0 0 .026-1.006"/><path fill="#D69F59" d="M110.413 29.582l4.778-5.96c-2.732-.574-4.744 1.295-4.744 1.295-5.607-4.377-11.463 0-11.463 0-1.437-1.726-4.312-1.15-4.312-1.15l4.566 5.671 11.175.144"/><path fill="#D87637" d="M113.072 29.942a1.87 1.87 0 0 1-1.869 1.869H97.656a1.869 1.869 0 0 1 0-3.739h13.547a1.87 1.87 0 0 1 1.87 1.87"/><path fill="#fff" d="M105.97 50.303v1.912h-1.837v-1.781c-1.256-.056-2.474-.394-3.186-.806l.562-2.194c.787.431 1.893.825 3.112.825 1.068 0 1.799-.413 1.799-1.163 0-.713-.6-1.162-1.987-1.631-2.005-.675-3.374-1.613-3.374-3.432 0-1.65 1.162-2.943 3.168-3.337v-1.782h1.837v1.65c1.256.057 2.099.319 2.718.619l-.544 2.119c-.487-.206-1.349-.637-2.699-.637-1.218 0-1.612.525-1.612 1.05 0 .619.656 1.012 2.249 1.612 2.231.788 3.131 1.819 3.131 3.507 0 1.668-1.181 3.094-3.337 3.469"/></g><g><path fill="#BBBBB8" d="M187.858 27.841l-.02-.128 3.1-3.121s6.913-5.569 6.452-11.138l-.072.067c.012-.447-.089-.811-.33-1.054-.302-.304-.784-.396-1.39-.307-5.39-.104-10.652 6.513-10.652 6.513l-3.1 3.123-.19-.031-8.118 8.395-9.23 10.891-10.796-.166-1.347 1.399 10.377 4.19 4.774 10.951 1.297-1.335-.375-10.732 10.65-8.634 8.97-8.883"/><path fill="#283641" d="M176.675 20.97l1.012-1.02a1.485 1.485 0 0 0 0-2.088 1.46 1.46 0 0 0-2.075 0l-2.304 2.321a1.573 1.573 0 0 0-.179.22l-19.524-3.12-.922 1.855 15.21 7.889 5.004 3.779 8.758-9.041-4.98-.796M182.642 41.762l7.834 15.315 1.844-.929-3.099-19.659c.077-.052.151-.111.218-.18l2.305-2.32a1.485 1.485 0 0 0 0-2.089 1.463 1.463 0 0 0-2.075 0l-1.01 1.019-.8-5.078-8.97 8.883 3.753 5.038M189.785 14.96s3.64 1.344 4.724 4.759c0 0 2.035-6.306-4.724-4.759M169.275 40.253l-9.333 6.845 2.305 2.321 7.028-9.166"/><path fill="#283641" d="M167.662 29.812l-1.844-1.857 7.605-7.656 1.843 1.856-7.604 7.657M189.324 36.309l-7.605 7.658-1.844-1.858 7.605-7.657"/></g><g><path fill="#D8483D" d="M230.62 29.054h28.91v25.734h-28.91z"/><path fill="#B0392F" d="M230.345 50.109h29.368v4.624h-29.368zM230.345 41.916h29.368v4.622h-29.368zM230.345 33.302h29.368v4.622h-29.368z"/><path fill="#2C3F4F" d="M240.992 27.576h7.709v27.526h-7.709z"/><path fill="#2C3F4F" d="M242.642 24.619h4.406v4.803h-4.406zM248.947 27.851l17.742.161-5.319 3.622 1.868 5.153-14.555-6.615.264-2.321M241.285 27.811l-17.73.69 5.425 3.46-1.306 4.795 13.945-6.633-.334-2.312"/><path fill="#2C3F4F" d="M246.004 27.74s-.014-.169-.009-.482c.011-.31.013-.775.077-1.355.124-1.159.397-2.81 1.156-4.731.389-.958.896-1.986 1.66-3.027.77-1.018 1.808-2.118 3.42-2.83.794-.362 1.741-.556 2.69-.56.481 0 .94.045 1.416.143.219.036.807.18 1.164.305 1.597.498 3.288 1.611 4.339 3.347.513.863.851 1.843.972 2.833.128.992.016 1.985-.239 2.889a7.516 7.516 0 0 1-1.195 2.43 7.955 7.955 0 0 1-1.755 1.767c-1.276.958-2.673 1.448-3.95 1.688a11.412 11.412 0 0 1-3.522.077 13.704 13.704 0 0 1-4.677-1.521c-.516-.268-.896-.53-1.156-.698-.259-.174-.391-.275-.391-.275zl1.786-.098a31.506 31.506 0 0 0 1.956-.166 19.645 19.645 0 0 0 2.376-.408c.827-.199 1.679-.471 2.456-.859.78-.382 1.487-.879 2.006-1.453.523-.576.837-1.225.938-1.817.092-.595-.01-1.101-.277-1.53-.247-.445-.743-.846-1.46-1.166-.221-.09-.229-.107-.603-.212-.12-.037-.264-.09-.388-.11a2.252 2.252 0 0 0-.819.006c-.605.107-1.364.515-2.059 1.068-.706.544-1.368 1.207-1.963 1.858a36.383 36.383 0 0 0-1.614 1.892c-.479.59-.889 1.126-1.235 1.57l-1.1 1.425zM243.419 27.462l-1.099-1.424c-.346-.445-.757-.981-1.235-1.571a37.226 37.226 0 0 0-1.615-1.89c-.594-.653-1.256-1.314-1.963-1.859-.695-.553-1.454-.96-2.058-1.07-.308-.047-.561-.057-.821-.005-.123.02-.267.073-.386.111-.375.104-.383.12-.603.212-.718.32-1.214.721-1.46 1.165-.269.43-.37.934-.278 1.531.1.592.416 1.24.94 1.815.517.576 1.224 1.073 2.004 1.455.778.387 1.63.661 2.457.859.829.203 1.639.32 2.375.409.736.086 1.402.133 1.957.165 1.136.063 1.785.097 1.785.097zs-.132.102-.39.276c-.261.168-.641.429-1.156.697a13.696 13.696 0 0 1-4.677 1.522 11.473 11.473 0 0 1-3.522-.077c-1.277-.24-2.673-.73-3.95-1.688a7.924 7.924 0 0 1-1.756-1.766 7.53 7.53 0 0 1-1.195-2.43c-.254-.905-.367-1.898-.238-2.89.12-.99.459-1.97.971-2.833 1.052-1.737 2.742-2.85 4.34-3.347.357-.126.945-.269 1.163-.306a6.81 6.81 0 0 1 1.416-.143c.949.006 1.896.198 2.69.56 1.613.712 2.651 1.81 3.421 2.83.763 1.042 1.27 2.07 1.658 3.027a17.839 17.839 0 0 1 1.157 4.733c.066.578.067 1.043.077 1.353.005.314-.009.482-.009.482z"/></g><g><path fill="#8B9491" d="M121.806 158.862l-1.513-3.543-4.037-2.56s-1.615.592-1.009 1.97l3.43 2.066 1.212 3.05 1.917-.983"/><path fill="#A2ABA9" d="M120.535 188.137c-1.481 0-2.879-.755-3.833-2.071-.969-1.335-1.482-3.224-1.482-5.459 0-5.046-1.2-6.643-1.915-7.145-.591-.416-1.162-.28-1.168-.279l-.845-2.473c.187-.06 1.877-.559 3.576.636 2.008 1.412 3.027 4.526 3.027 9.261 0 2.139.538 3.331.99 3.954.46.632 1.03.968 1.65.968 1.387 0 2.861-1.657 2.861-4.725 0-3.121.036-5.887.066-8.108.018-1.439.034-2.628.034-3.503h2.675c0 .883-.016 2.085-.036 3.534a597.589 597.589 0 0 0-.065 8.077c0 4.761-2.852 7.333-5.535 7.333"/><path fill="#EAC03A" d="M112.318 194.775v-38.963c0-1.958-1.625-3.543-3.633-3.543h-18.77c-2.007 0-3.635 1.585-3.635 3.543v38.963h26.038"/><path fill="#fff" d="M89.31 156.402h19.375v10.035H89.309z"/><path fill="#D87637" d="M84.465 192.414h29.671v5.904H84.465z"/><path fill="#A2ABA9" d="M125.844 166.831l-3.532-8.658-3.331 1.378 3.23 7.28s.604 3.149 1.817 3.543c1.209.393 2.926-.295 1.816-3.543"/><path fill="#A2ABA9" d="M124.017 170.796c-3.915-1.274-4.831-4.048-4.868-4.166l-.077-.245 1.628-3.281 1.204.568-1.386 2.793c.275.592 1.254 2.227 3.922 3.094l-.423 1.237"/></g><g><path fill="#70A28C" d="M153.153 194.951a.805.805 0 0 1-.784-1.029c1.29-4.399 4.555-5.966 4.693-6.029a.817.817 0 0 1 1.086.382c.192.4.019.88-.387 1.071-.119.058-2.75 1.357-3.823 5.023a.816.816 0 0 1-.785.582"/><path fill="#69B96D" d="M180.22 157.021l-17.81 11.43a4.358 4.358 0 0 0-2.012 3.51l-3.458 13.047.001.005a4.138 4.138 0 0 0 .47 3.606 4.248 4.248 0 0 0 3.58 1.905l14.154 1.938-.054-.083a4.443 4.443 0 0 0 2.626-.699l17.81-11.427a4.343 4.343 0 0 0 1.299-6.055l-10.473-15.894c-1.336-2.025-4.082-2.6-6.133-1.283zm-16.851 30.277a2.329 2.329 0 0 1-3.194-.668 2.263 2.263 0 0 1 .676-3.155 2.33 2.33 0 0 1 3.195.67 2.262 2.262 0 0 1-.677 3.153z"/><path fill="#70A28C" d="M156.665 188.207a.816.816 0 0 1-.314-.064.799.799 0 0 1-.44-1.051c.053-.127.552-1.239 1.79-1.739.87-.35 1.845-.304 2.905.139a.802.802 0 0 1 .434 1.055.818.818 0 0 1-1.069.428c-.645-.27-1.2-.313-1.652-.131-.618.25-.899.861-.902.867a.819.819 0 0 1-.752.496"/><path fill="#70A28C" d="M158.574 190.507a.812.812 0 0 1-.81-.72c-.122-1.139.295-3.405 2.759-3.839a.814.814 0 0 1 .946.651.807.807 0 0 1-.66.935c-1.57.276-1.442 1.9-1.423 2.084a.805.805 0 0 1-.812.889"/><path fill="#fff" d="M187.699 175.278c0 5.437-4.466 9.845-9.975 9.845-5.51 0-9.976-4.408-9.976-9.845 0-5.436 4.466-9.844 9.976-9.844 5.509 0 9.975 4.408 9.975 9.844"/><path fill="#4C987D" d="M181.412 180.627c-.861.622-1.881.424-2.489-.396-.618-.837-.47-1.853.392-2.471.88-.632 1.872-.44 2.505.385.607.823.486 1.84-.392 2.472l-.016.01zm-3.495-2.908l-5.459-6.623 2.512-1.806 4.718 7.152-1.771 1.277z"/></g><g><path fill="#E7EEEF" d="M227 198h36v-46h-36z"/><path fill="#C3D1D3" d="M243.127 159.125h14.174v-1.484h-14.174zM233.125 192.359h24.243v-1.484h-24.243zM233.125 187.611h24.243v-1.483h-24.243zM233.125 182.864h24.243v-1.484h-24.243zM233.125 178.115h24.243v-1.483h-24.243zM233.125 173.368h24.243v-1.483h-24.243zM243.127 168.62h14.241v-1.484h-14.241zM243.127 163.872h14.241v-1.483h-14.241z"/><path fill="#71C172" d="M236.32 164.17v2.525c.976-.145 1.371-.74 1.371-1.306 0-.653-.593-.972-1.37-1.219zm-1.13-2.147v-2.278c-.792.102-1.287.55-1.287 1.19 0 .566.537.856 1.286 1.088zm0 6.181c-1.456-.116-2.545-.711-3.294-1.509l.933-1.32a4.015 4.015 0 0 0 2.36 1.306v-2.816c-1.455-.377-2.982-.914-2.982-2.8 0-1.48 1.16-2.655 2.982-2.815v-1.334h1.131v1.348c1.145.131 2.106.595 2.841 1.322l-.933 1.261a3.713 3.713 0 0 0-1.908-1.03v2.511c1.47.392 3.068.958 3.068 2.902 0 1.48-.947 2.786-3.068 2.974v1.306h-1.13v-1.306z"/></g></g></svg>