<svg width="280" height="280" viewBox="0 0 280 280" xmlns="http://www.w3.org/2000/svg" xmlns:xlink="http://www.w3.org/1999/xlink"><title>credit-card-category-spritesheet copy</title><defs><path d="M1.555 15.887H25.33c.69 0 1.25-.549 1.25-1.223V5.215H.306v9.449c0 .674.56 1.223 1.25 1.223z" id="a"/><mask id="q" x="0" y="0" width="26.276" height="10.672" fill="#fff"><use xlink:href="#a"/></mask><path d="M25.33.82H1.555c-.69 0-1.25.546-1.25 1.221v4.122H26.58V2.041c0-.675-.561-1.222-1.251-1.222z" id="b"/><mask id="r" x="0" y="0" width="26.276" height="5.344" fill="#fff"><use xlink:href="#b"/></mask><path d="M1.728 18.168h26.416c.767 0 1.39-.628 1.39-1.4V5.964H.34v10.804c0 .772.622 1.4 1.39 1.4z" id="c"/><mask id="s" x="0" y="0" width="29.195" height="12.204" fill="#fff"><use xlink:href="#c"/></mask><path d="M28.144.937H1.728c-.767 0-1.39.625-1.39 1.397v4.283h29.196V2.334c0-.772-.623-1.397-1.39-1.397z" id="d"/><mask id="t" x="0" y="0" width="29.195" height="5.68" fill="#fff"><use xlink:href="#d"/></mask><path d="M1.728 18.168h26.416c.767 0 1.39-.628 1.39-1.4V5.964H.34v10.804c0 .772.622 1.4 1.39 1.4z" id="e"/><mask id="u" x="0" y="0" width="29.195" height="12.204" fill="#fff"><use xlink:href="#e"/></mask><path d="M28.144.937H1.728c-.767 0-1.39.625-1.39 1.397v3.283h29.196V2.334c0-.772-.623-1.397-1.39-1.397z" id="f"/><mask id="v" x="0" y="0" width="29.195" height="4.68" fill="#fff"><use xlink:href="#f"/></mask><path d="M19.846 13.427c-2.04-1.827-5.122-3.074-8.061-3.074-6.268 0-11.348 5.042-11.348 11.264 0 .854.104 1.685.286 2.485.541 3.525 3.057 9.642 9.154 18.006 0 0 2.066 3.445 5.847 3.445 1.562 0 3.038-.408 4.327-1.383 1.234.858 2.628 1.227 4.1 1.227 3.78 0 5.847-3.446 5.847-3.446 6.097-8.365 8.612-14.48 9.154-18.004.181-.8.286-1.632.286-2.486 0-6.221-5.08-11.265-11.348-11.265-3.024 0-6.21 1.318-8.244 3.231z" id="g"/><mask id="w" x="0" y="0" width="39.002" height="35.357" fill="#fff"><use xlink:href="#g"/></mask><path id="h" d="M30.533 13.152l-2.719 5.042-3.11-4.875-3.112 4.875-3.29-4.954h-.115l-3.056 4.954-3.23-4.875-3.352 4.707-2.735-4.021-5.76 30.403h37.405l-6.7-31.257z"/><mask id="x" x="0" y="0" width="37.406" height="31.257" fill="#fff"><use xlink:href="#h"/></mask><path id="y" d="M43.38 44.731H0V.468h43.38v44.263z"/><path d="M43.38 40.793a3.944 3.944 0 0 1-3.95 3.939H3.948A3.944 3.944 0 0 1 0 40.792V4.407A3.944 3.944 0 0 1 3.948.468H39.43a3.943 3.943 0 0 1 3.95 3.938v36.387z" id="i"/><mask id="A" x="0" y="0" width="43.38" height="44.264" fill="#fff"><use xlink:href="#i"/></mask><path id="j" d="M19.284 8.184l-1.717 3.137-1.965-3.033-1.965 3.033-2.078-3.083h-.072l-1.93 3.083-2.04-3.033-2.118 2.928-1.727-2.502L.034 27.631h23.625L19.427 8.183z"/><mask id="B" x="0" y="0" width="23.625" height="19.449" fill="#fff"><use xlink:href="#j"/></mask><path d="M40.576 6.646c-2.92 0-4.187 3.016-4.187 6.735 0 3.488.98 6.354 3.645 6.702l-.046 1.16-1.265 18.041s.274 2.362 1.922 2.362c1.63-.033 1.905-2.373 1.905-2.373l-1.032-14.72.02.08-.273-4.583c2.593-.432 3.499-3.247 3.499-6.669 0-3.72-1.269-6.735-4.188-6.735z" id="k"/><mask id="C" x="-1" y="-1" width="10.375" height="37"><path fill="#fff" d="M35.389 5.646h10.375v37H35.389z"/><use xlink:href="#k"/></mask><path d="M.527 15.033c.078 2.715.468 4.766 2.7 5.057l-.047 1.171L1.902 39.49s.278 2.386 1.942 2.386c1.648-.033 1.925-2.397 1.925-2.397L4.727 24.605l.02.081-.275-4.63c3.332 0 2.85-5.09 2.85-5.09.003-.177.002-.375 0-.563V7.142c0-.147-.218-.267-.488-.267s-.49.12-.49.267v7.954c-.076.098-.254.168-.46.168-.234 0-.42-.09-.476-.208V7.142c0-.147-.221-.267-.49-.267-.272 0-.49.12-.49.267v7.889c-.038.131-.237.233-.486.233-.277 0-.502-.123-.502-.273L3.42 7.176c0-.147-.21-.266-.47-.266-.263 0-.473.119-.473.266l-.011 7.815c0 .15-.226.273-.502.273-.266 0-.476-.114-.495-.256V7.171c0-.125-.212-.228-.472-.228s-.471.103-.471.228v7.862z" id="l"/><mask id="D" x="-1" y="-1" width="8.82" height="37"><path fill="#fff" d="M-.473 5.875h8.82v37h-8.82z"/><use xlink:href="#l"/></mask><path id="m" d="M37 37v4.623H7V37z"/><mask id="E" x="0" y="0" width="30" height="4.623" fill="#fff"><use xlink:href="#m"/></mask><path id="n" d="M37 29v4.622H7V29z"/><mask id="F" x="0" y="0" width="30" height="4.622" fill="#fff"><use xlink:href="#n"/></mask><path id="o" d="M37 20v4.622H7V20z"/><mask id="G" x="0" y="0" width="30" height="4.622" fill="#fff"><use xlink:href="#o"/></mask><path id="p" d="M0 46h36V0H0z"/><mask id="H" x="0" y="0" width="36" height="46" fill="#fff"><use xlink:href="#p"/></mask></defs><g fill="none" fill-rule="evenodd"><g transform="translate(18 17.076)"><use stroke="#D4DEE0" mask="url(#q)" stroke-width="2" fill="#FFF" xlink:href="#a"/><use stroke="#D4DEE0" mask="url(#r)" stroke-width="2" fill="#FFF" xlink:href="#b"/><path fill="#D4DEE0" d="M.305 2.853H26.58v4.11H.305zM2.39 8.624h5.283v3.316H2.39zM9.62 8.828h14.458v.814H9.62zM9.654 10.695h14.459v.814H9.653z"/></g><g transform="translate(27 26)"><use stroke="#D4DEE0" mask="url(#s)" stroke-width="2" fill="#FFF" xlink:href="#c"/><use stroke="#D4DEE0" mask="url(#t)" stroke-width="2" fill="#FFF" xlink:href="#d"/><path fill="#D4DEE0" d="M.339 3.263h29.195v4.7H.34zM2.655 9.862h5.87v3.791h-5.87zM10.689 10.095h16.065v.93H10.689zM10.726 12.23h16.066v.93H10.726z"/></g><g transform="translate(13 34)"><use stroke="#D4DEE0" mask="url(#u)" stroke-width="2" fill="#FFF" xlink:href="#e"/><use stroke="#D4DEE0" mask="url(#v)" stroke-width="2" fill="#FFF" xlink:href="#f"/><path fill="#D4DEE0" d="M.339 3.263h29.195v4.7H.34zM2.655 9.862h5.87v3.791h-5.87zM10.689 10.095h16.065v.93H10.689zM10.726 12.23h16.066v.93H10.726z"/></g><path stroke="#D4DEE0" fill="#FFF" d="M19.154 107.49h34.093v19.42H19.154z"/><path stroke="#D4DEE0" fill="#FFF" d="M18.58 102.485h35.24v5.886H18.58z"/><path fill="#D4DEE0" d="M25.695 108.37H21.11l4.776-6.18h4.585l-4.776 6.18M36.39 108.517h-4.582l4.774-6.178h4.584l-4.775 6.178M47.087 108.517h-4.584l4.774-6.178h4.584l-4.774 6.178"/><path stroke="#D4DEE0" fill="#FFF" d="M18.529 103.428l-2.479-5.306 31.77-15.658 2.48 5.307z"/><path fill="#D4DEE0" d="M24.943 100.266l-4.133 2.038 1.703-7.693 4.133-2.037-1.703 7.692M34.648 95.647l-4.132 2.037 1.702-7.693 4.132-2.036-1.702 7.692M44.29 90.894l-4.132 2.037 1.704-7.692 4.132-2.038-1.704 7.693M24.167 112.196h23.78v9.417h-23.78z"/><g><path d="M49 192.5a2.5 2.5 0 1 1-5 0 2.5 2.5 0 0 1 5 0M33 192.5a2.5 2.5 0 1 1-5 0 2.5 2.5 0 0 1 5 0" stroke="#D4DEE0" stroke-width="2" fill="#FFF"/><path stroke="#D4DEE0" fill="#FFF" d="M49.616 159.72v10.421h-8.671V159.72zM35.625 170.834l-8.494-2.321 3.086-11.44 8.493 2.32-3.085 11.441"/><path d="M35.898 162.78a2.792 2.792 0 0 1-2.783 2.802 2.792 2.792 0 0 1-2.783-2.802 2.792 2.792 0 0 1 2.783-2.801 2.793 2.793 0 0 1 2.783 2.801" fill="#FFF"/><path stroke="#D4DEE0" fill="#FFF" d="M51.318 161.404v-1.067h-.556v1.063l-3.928 1.706v7.035h8.347v-7.033zM38.848 163.196c.18.103.345.222.49.353a3.05 3.05 0 0 1 2.012-.8 2.778 2.778 0 0 1 2.7 3.403c-.133.873-.747 2.386-2.235 4.456 0 0-.504.852-1.426.852-.36 0-.7-.09-1-.302-.316.24-.675.341-1.057.341-.923 0-1.427-.852-1.427-.852-1.488-2.07-2.102-3.585-2.234-4.457a2.778 2.778 0 0 1 2.7-3.402c.44 0 .894.117 1.294.311-.113-.58-.38-2.915 2.377-3.867 0 0 .963 3.172-2.194 3.964zM32.662 167.601c0 2.59-2.086 4.69-4.66 4.69-2.573 0-4.66-2.1-4.66-4.69 0-2.59 2.087-4.69 4.66-4.69 2.574 0 4.66 2.1 4.66 4.69"/><path stroke="#D4DEE0" stroke-width="2" d="M26.817 189.285l22.717.11 2.415-7.102-25.875-.11-7.366-19.787h-3.824"/><path fill="#D4DEE0" d="M58 167.494H20.563l6.156 14.266 26.47.117zM21.466 162.476c0 .825-.665 1.495-1.486 1.495h-6.313c-.82 0-1.486-.67-1.486-1.495 0-.826.665-1.496 1.486-1.496h6.313c.82 0 1.486.67 1.486 1.496"/></g><g transform="translate(15 222)"><use stroke="#D4DEE0" mask="url(#w)" stroke-width="2" fill="#FFF" xlink:href="#g"/><path d="M19.507 13.794S16.671 3.782 27.702.026c0 0 3.468 11.265-8.195 13.768" fill="#D4DEE0"/></g><g><g transform="translate(86 83)"><use stroke="#D4DEE0" mask="url(#x)" stroke-width="2" fill="#FFF" xlink:href="#h"/><path d="M12.464 21.216H9.656V9.849c-.067-.663-.303-4.232 1.98-6.804C13.156 1.33 15.391.463 18.278.463c2.365 0 4.281.755 5.693 2.244 2.547 2.688 2.438 6.828 2.412 7.358V20.96h-2.808l.003-11.018c.002-.03.173-3.413-1.663-5.338-.87-.915-2.06-1.359-3.637-1.359-2.044 0-3.57.551-4.532 1.637-1.618 1.822-1.297 4.684-1.294 4.714l.012.177v11.443" fill="#D4DEE0"/><path d="M12.939 21.886a2.026 2.026 0 0 1-2.035 2.018 2.026 2.026 0 0 1-2.034-2.018c0-1.112.91-2.016 2.034-2.016 1.124 0 2.035.904 2.035 2.016M26.844 21.886a2.027 2.027 0 0 1-2.036 2.018 2.026 2.026 0 0 1-2.034-2.018c0-1.112.91-2.016 2.034-2.016 1.124 0 2.036.904 2.036 2.016" fill="#D4DEE0"/></g></g><g><g transform="translate(153 83.376)"><mask id="z" fill="#fff"><use xlink:href="#y"/></mask><g mask="url(#z)" stroke-width="2" stroke="#D4DEE0" fill="#FFF"><use mask="url(#A)" xlink:href="#i"/></g></g><path d="M192.43 82.844h-35.482A3.943 3.943 0 0 0 153 86.783v4.548h43.38v-4.548a3.944 3.944 0 0 0-3.95-3.939" fill="#D4DEE0"/><path d="M159.332 87.425a1.69 1.69 0 0 1-1.692 1.688 1.69 1.69 0 0 1-1.693-1.688 1.69 1.69 0 0 1 1.693-1.688 1.69 1.69 0 0 1 1.692 1.688M164.99 87.425a1.69 1.69 0 0 1-1.693 1.688 1.69 1.69 0 0 1-1.692-1.688 1.69 1.69 0 0 1 1.692-1.688 1.69 1.69 0 0 1 1.692 1.688M170.647 87.425a1.69 1.69 0 0 1-1.692 1.688 1.69 1.69 0 0 1-1.693-1.688 1.69 1.69 0 0 1 1.693-1.688 1.69 1.69 0 0 1 1.692 1.688" fill="#FFF"/><g transform="translate(163 94)"><use stroke="#D4DEE0" mask="url(#B)" stroke-width="2" fill="#FFF" xlink:href="#j"/><path d="M7.872 13.2H6.099V6.129c-.043-.412-.192-2.633 1.25-4.233C8.31.828 9.72.288 11.544.288c1.494 0 2.704.47 3.595 1.397 1.609 1.672 1.54 4.248 1.524 4.578v6.779H14.89l.001-6.856c.002-.018.11-2.123-1.05-3.321-.55-.57-1.301-.846-2.297-.846-1.291 0-2.254.343-2.862 1.019-1.022 1.133-.82 2.914-.817 2.933l.007.11v7.12" fill="#D4DEE0"/><path d="M8.172 13.618c0 .693-.576 1.255-1.285 1.255-.71 0-1.285-.562-1.285-1.255 0-.692.575-1.254 1.285-1.254s1.285.562 1.285 1.254M16.954 13.618c0 .693-.576 1.255-1.286 1.255-.71 0-1.285-.562-1.285-1.255 0-.692.575-1.254 1.285-1.254s1.286.562 1.286 1.254" fill="#D4DEE0"/></g></g><g><path d="M245.409 124.023v-11.25c5.734-.557 10.219-5.445 10.219-11.39V84.77H233v16.611c0 5.862 4.358 10.695 9.976 11.365v11.276h-4.502s-1.824.123-1.824 1.969h14.476s-.121-1.969-1.946-1.969h-3.771z" stroke="#D4DEE0" fill="#FFF"/><path d="M239.328 96.755c-2.43 0-4.555 1.474-4.555 1.474l-.001 2.827v.369c.211 5.054 4.311 9.094 9.355 9.094 5.045 0 9.145-4.04 9.337-9.094l.02-4.535c-1.641.725-2.905 1.34-6.318 1.34-2.978 0-3.645-1.475-7.838-1.475z" fill="#D4DEE0"/><g transform="translate(222 84)"><use fill="#FFF" xlink:href="#k"/><use stroke="#D4DEE0" mask="url(#C)" stroke-width="2" xlink:href="#k"/></g><g transform="translate(222 84)"><use fill="#FFF" xlink:href="#l"/><use stroke="#D4DEE0" mask="url(#D)" stroke-width="2" xlink:href="#l"/></g></g><g><path d="M101.308 29.643a.562.562 0 1 1 .6.95.562.562 0 0 1-.6-.95M105.637 28.234a.563.563 0 1 0-.6-.951.563.563 0 0 0 .6.95M102.466 28.066a.654.654 0 1 1 .212 1.291.654.654 0 0 1-.212-1.29M107.747 28.524a.655.655 0 1 0-.212-1.292.655.655 0 0 0 .212 1.292" fill="#51A75D"/><path d="M109.853 26.129l-.464-.19c-.168.368-.425.694-.635.853l-.538-.412a2.21 2.21 0 0 0 .63-.839c.12-.294.11-.555-.094-.639-.185-.076-.364.05-.642.414-.399.519-.825.834-1.34.624-.464-.19-.68-.676-.533-1.304l-.464-.19.21-.514.434.177c.168-.368.347-.575.502-.727l.524.4c-.115.112-.355.328-.523.737-.143.35-.04.51.091.563.16.065.355-.1.682-.497.46-.57.84-.73 1.324-.531.445.182.709.675.547 1.356l.5.204-.21.515" fill="#69B96D"/><path d="M103.533 28.952a.654.654 0 1 1-.496 1.21.654.654 0 0 1 .496-1.21" fill="#51A75D"/><path d="M114.569 21.132l-5.265 12.87a.906.906 0 0 1-1.183.496l-6.152-2.52a.907.907 0 0 1-.496-1.182l5.265-12.87a.906.906 0 0 1 1.182-.496l6.153 2.52c.463.189.685.718.496 1.182z" stroke="#D4DEE0" fill="#FFF"/><path d="M109.096 23.137a3.1 3.1 0 0 1-2.347 5.736 3.099 3.099 0 0 1 2.347-5.736M112.865 20.707a.655.655 0 1 1-.496 1.212.655.655 0 0 1 .496-1.212M107.615 19.972a.654.654 0 1 0-.358-.854.654.654 0 0 0 .358.854" fill="#D4DEE0"/><path d="M102.83 17.901l6.258 12.417a.906.906 0 0 1-.401 1.218l-5.938 2.99a.907.907 0 0 1-1.217-.401l-6.26-12.418a.906.906 0 0 1 .402-1.217l5.938-2.99a.907.907 0 0 1 1.217.401z" stroke="#D4DEE0" fill="#FFF"/><path d="M100.752 23.347a3.1 3.1 0 0 1 2.79 5.534 3.099 3.099 0 0 1-2.79-5.534M101.39 18.908a.655.655 0 1 1 .59 1.17.655.655 0 0 1-.59-1.17M97.392 22.388a.654.654 0 1 0-.88-.29.654.654 0 0 0 .88.29" fill="#D4DEE0"/><g><path d="M109.105 16.972l.182 13.904a.906.906 0 0 1-.895.918l-6.648.086a.907.907 0 0 1-.918-.895l-.182-13.905a.906.906 0 0 1 .894-.918l6.648-.085c.5-.007.912.394.919.895z" stroke="#D4DEE0" fill="#FFF"/><path d="M104.85 20.956a3.1 3.1 0 0 1 .081 6.197 3.099 3.099 0 0 1-.08-6.197M107.37 17.246a.655.655 0 1 1 .017 1.31.655.655 0 0 1-.017-1.31M102.25 18.621a.654.654 0 1 0-.663-.646.654.654 0 0 0 .663.646" fill="#D4DEE0"/></g><path d="M107.79 32.11a.655.655 0 1 0 .498-1.212.655.655 0 0 0-.497 1.212" fill="#51A75D"/><path d="M121.245 47.274C119.9 35.918 109.55 29.231 109.55 29.231l-8.626.288.01.037-.585-.037c-5.983 4.938-9.056 9.267-10.283 12.906a15.888 15.888 0 0 0-.94 4.181c-.09.889-.06 1.392-.06 1.392 0 8.816 3.415 8.98 15.922 8.98 12.795 0 16.206.076 16.206-8.333l.03-.004s.002-.126-.005-.36c.018-.31.028-.62.028-.934l-.002-.073" stroke="#D4DEE0" fill="#FFF"/><path d="M110.413 29.582l4.778-5.96c-2.732-.574-4.744 1.295-4.744 1.295-5.607-4.377-11.463 0-11.463 0-1.437-1.725-4.313-1.15-4.313-1.15l4.567 5.671 11.175.144" stroke="#D4DEE0" fill="#FFF"/><path d="M113.072 29.942a1.87 1.87 0 0 1-1.869 1.87H97.656a1.87 1.87 0 0 1 0-3.74h13.547a1.87 1.87 0 0 1 1.869 1.87M105.97 50.303v1.912h-1.837v-1.781c-1.256-.056-2.474-.394-3.186-.806l.562-2.194c.787.431 1.893.825 3.112.825 1.068 0 1.8-.413 1.8-1.163 0-.713-.6-1.162-1.988-1.63-2.005-.676-3.374-1.614-3.374-3.433 0-1.65 1.162-2.943 3.168-3.337v-1.782h1.837v1.65c1.256.057 2.1.32 2.718.62l-.544 2.118c-.487-.206-1.35-.637-2.699-.637-1.218 0-1.612.525-1.612 1.05 0 .619.656 1.012 2.25 1.612 2.23.788 3.13 1.82 3.13 3.507 0 1.668-1.181 3.094-3.337 3.469" fill="#D4DEE0"/></g><g><path d="M187.83 27.896s10.021-8.873 9.56-14.442c-.06-.38-.161-.744-.403-.987-.301-.304-.783-.396-1.39-.307-5.39-.104-14.128 10.002-14.128 10.002l-7.93 7.998-9.232 10.89-10.795-.165-1.347 1.4 10.377 4.189 4.775 10.951 1.296-1.335-.375-10.732 10.65-8.634 8.943-8.828z" stroke="#D4DEE0" fill="#FFF"/><path d="M176.675 20.97l1.012-1.02a1.484 1.484 0 0 0 0-2.088 1.46 1.46 0 0 0-2.075 0l-2.304 2.321a1.502 1.502 0 0 0-.178.22l-19.525-3.12-.922 1.855 15.21 7.89 5.004 3.778 8.758-9.041-4.98-.796M182.642 41.762l7.834 15.315 1.844-.929-3.1-19.659a1.37 1.37 0 0 0 .22-.18l2.304-2.32a1.484 1.484 0 0 0 0-2.089 1.461 1.461 0 0 0-2.075 0l-1.01 1.02-.801-5.08-8.97 8.884 3.754 5.038M190.428 15.54s2.705.999 3.512 3.537c0 0 1.512-4.687-3.512-3.538M169.276 40.253l-9.334 6.845 2.305 2.32 7.029-9.165" fill="#D4DEE0"/><path fill="#D4DEE0" d="M167.662 29.812l-1.844-1.857 7.605-7.656 1.843 1.856-7.604 7.657M189.324 36.309l-7.605 7.658-1.844-1.858 7.605-7.657"/></g><g transform="translate(223 14)"><path stroke="#D4DEE0" fill="#FFF" d="M7.62 15.054h28.91v25.734H7.62z"/><use stroke="#D4DEE0" mask="url(#E)" stroke-width="2" fill="#FFF" xlink:href="#m"/><use stroke="#D4DEE0" mask="url(#F)" stroke-width="2" fill="#FFF" xlink:href="#n"/><use stroke="#D4DEE0" mask="url(#G)" stroke-width="2" fill="#FFF" xlink:href="#o"/><path fill="#D4DEE0" d="M17.992 13.576H25.7v27.526h-7.71z"/><path fill="#D4DEE0" d="M19.642 10.619h4.406v4.803h-4.406zM25.947 13.851l17.742.16-5.32 3.623 1.869 5.153-14.555-6.615.264-2.32M18.285 13.81l-17.73.691 5.425 3.46-1.306 4.795 13.945-6.633-.334-2.312"/><path d="M23.004 13.74s-.014-.17-.009-.482c.01-.31.013-.775.077-1.355.124-1.16.397-2.81 1.156-4.731.389-.958.896-1.986 1.66-3.027.77-1.018 1.808-2.118 3.42-2.83.794-.362 1.741-.556 2.69-.56.48 0 .94.045 1.416.143.219.036.807.18 1.164.305 1.597.498 3.288 1.611 4.339 3.347.513.863.85 1.843.972 2.833.128.992.016 1.985-.239 2.89a7.516 7.516 0 0 1-1.195 2.43 7.953 7.953 0 0 1-1.755 1.766c-1.276.958-2.673 1.448-3.95 1.688a11.413 11.413 0 0 1-3.522.077 13.709 13.709 0 0 1-4.677-1.52c-.516-.269-.896-.531-1.156-.7a8.826 8.826 0 0 1-.39-.274zm0 0l1.786-.098c.555-.031 1.22-.08 1.956-.166a19.837 19.837 0 0 0 2.376-.408c.827-.199 1.679-.471 2.456-.86.78-.38 1.487-.878 2.006-1.452.523-.576.837-1.225.938-1.817.092-.595-.01-1.101-.277-1.53-.247-.445-.743-.846-1.46-1.166-.22-.09-.229-.107-.603-.212-.12-.037-.264-.09-.388-.11a2.256 2.256 0 0 0-.82.006c-.604.107-1.363.515-2.058 1.068-.706.544-1.368 1.207-1.963 1.858a36.149 36.149 0 0 0-1.614 1.892c-.479.59-.89 1.126-1.235 1.57l-1.1 1.425zM20.42 13.462l-1.1-1.424c-.346-.445-.757-.98-1.235-1.571a37.442 37.442 0 0 0-1.615-1.89c-.594-.653-1.256-1.314-1.963-1.859-.695-.553-1.454-.96-2.058-1.07-.308-.047-.56-.057-.82-.004-.124.018-.268.072-.387.11-.375.104-.383.12-.603.212-.718.32-1.214.721-1.46 1.165-.269.43-.37.935-.278 1.531.1.592.416 1.24.94 1.815.517.576 1.224 1.073 2.004 1.455.778.387 1.63.66 2.457.86.83.202 1.64.319 2.375.408.736.086 1.402.133 1.957.165 1.136.063 1.785.097 1.785.097zm0 0s-.133.102-.391.276c-.261.168-.64.429-1.156.697a13.691 13.691 0 0 1-4.677 1.522c-1.049.13-2.237.16-3.522-.077-1.277-.24-2.673-.73-3.95-1.688a7.905 7.905 0 0 1-1.756-1.766 7.53 7.53 0 0 1-1.195-2.43c-.254-.905-.367-1.898-.238-2.89.12-.99.459-1.97.971-2.833 1.051-1.737 2.742-2.85 4.34-3.346C9.202.8 9.79.657 10.008.62a6.809 6.809 0 0 1 1.416-.143c.95.006 1.896.198 2.69.56 1.613.712 2.651 1.81 3.42 2.83.764 1.042 1.271 2.07 1.66 3.027a17.858 17.858 0 0 1 1.156 4.733c.066.578.067 1.043.077 1.353.005.314-.009.482-.009.482z" fill="#D4DEE0"/></g><g><path d="M121.806 158.862l-1.513-3.543-4.037-2.56s-1.615.592-1.01 1.97l3.43 2.066 1.213 3.05 1.917-.983M120.535 188.137c-1.481 0-2.879-.755-3.833-2.071-.969-1.335-1.482-3.224-1.482-5.46 0-5.045-1.2-6.642-1.915-7.144-.59-.416-1.162-.28-1.168-.279l-.845-2.473c.187-.06 1.877-.559 3.576.636 2.008 1.412 3.027 4.526 3.027 9.26 0 2.14.538 3.332.99 3.955.46.632 1.03.968 1.65.968 1.387 0 2.86-1.657 2.86-4.725 0-3.121.037-5.887.067-8.108.018-1.439.034-2.628.034-3.503h2.675c0 .883-.016 2.085-.036 3.534-.029 2.216-.065 4.973-.065 8.077 0 4.761-2.852 7.333-5.535 7.333" fill="#D4DEE0"/><path d="M112.318 194.775v-38.963c0-1.958-1.625-3.543-3.633-3.543h-18.77c-2.007 0-3.635 1.585-3.635 3.543v38.963h26.038" stroke="#D4DEE0" fill="#FFF"/><path fill="#D4DEE0" d="M89.31 156.402h19.375v10.035H89.31zM84.465 192.414h29.671v5.904H84.465zM125.844 166.831l-3.532-8.658-3.331 1.378 3.23 7.28s.604 3.15 1.817 3.543c1.21.393 2.926-.295 1.816-3.543"/><path d="M124.017 170.796c-3.915-1.274-4.831-4.048-4.868-4.166l-.077-.245 1.628-3.28 1.204.567-1.386 2.793c.275.592 1.254 2.227 3.922 3.094l-.423 1.237" fill="#D4DEE0"/></g><g><path d="M153.153 194.951a.806.806 0 0 1-.783-1.03c1.29-4.398 4.554-5.965 4.692-6.028a.817.817 0 0 1 1.086.382c.192.4.019.88-.387 1.07-.119.059-2.75 1.358-3.823 5.024a.816.816 0 0 1-.785.582" fill="#D4DEE0"/><path d="M162.41 168.45a4.357 4.357 0 0 0-2.012 3.51l-3.458 13.048a4.154 4.154 0 0 0 .47 3.611 4.25 4.25 0 0 0 3.58 1.905l14.155 1.938s1.76-.261 2.572-.782l17.81-11.427a4.342 4.342 0 0 0 1.299-6.055l-10.473-15.894c-1.336-2.025-4.082-2.6-6.133-1.283l-17.81 11.43zm.959 18.848a2.328 2.328 0 0 1-3.194-.668 2.262 2.262 0 0 1 .676-3.155 2.33 2.33 0 0 1 3.195.669 2.262 2.262 0 0 1-.677 3.154z" stroke="#D4DEE0" fill="#FFF"/><path d="M156.665 188.207a.814.814 0 0 1-.315-.064.8.8 0 0 1-.439-1.05c.054-.128.552-1.24 1.79-1.74.87-.35 1.845-.304 2.905.14a.801.801 0 0 1 .434 1.054.819.819 0 0 1-1.069.428c-.645-.27-1.2-.313-1.652-.13-.618.249-.899.86-.902.866a.818.818 0 0 1-.752.496" fill="#D4DEE0"/><path d="M158.574 190.507a.812.812 0 0 1-.81-.72c-.122-1.139.295-3.405 2.759-3.84a.814.814 0 0 1 .946.652.808.808 0 0 1-.66.935c-1.57.276-1.442 1.9-1.423 2.084a.806.806 0 0 1-.812.889M187.699 175.278c0 5.437-4.466 9.845-9.975 9.845-5.51 0-9.976-4.408-9.976-9.845 0-5.436 4.466-9.844 9.976-9.844 5.51 0 9.975 4.408 9.975 9.844" fill="#D4DEE0"/><path d="M181.412 180.627c-.86.622-1.881.424-2.49-.396-.617-.837-.469-1.853.393-2.471.88-.632 1.872-.44 2.505.385.607.823.486 1.84-.392 2.472l-.016.01zm-3.495-2.908l-5.459-6.623 2.512-1.806 4.718 7.152-1.771 1.277z" fill="#FFF"/></g><g transform="translate(227 152)"><use stroke="#D4DEE0" mask="url(#H)" stroke-width="2" fill="#FFF" xlink:href="#p"/><path fill="#D4DEE0" d="M16.127 7.125H30.3V5.64H16.127zM6.125 40.36h24.243v-1.485H6.125zM6.125 35.611h24.243v-1.483H6.125zM6.125 30.864h24.243V29.38H6.125zM6.125 26.115h24.243v-1.483H6.125zM6.125 21.368h24.243v-1.483H6.125zM16.127 16.62h14.24v-1.484h-14.24zM16.127 11.872h14.24V10.39h-14.24zM9.32 12.17v2.525c.976-.145 1.371-.74 1.371-1.306 0-.653-.593-.972-1.37-1.219zm-1.13-2.147V7.745c-.792.102-1.287.55-1.287 1.19 0 .566.537.856 1.286 1.088zm0 6.181c-1.456-.116-2.545-.71-3.294-1.509l.933-1.32a4.016 4.016 0 0 0 2.36 1.306v-2.816c-1.455-.377-2.982-.914-2.982-2.8 0-1.48 1.16-2.655 2.982-2.815V4.916H9.32v1.348c1.145.131 2.106.595 2.841 1.322l-.933 1.261a3.716 3.716 0 0 0-1.908-1.03v2.511c1.47.392 3.068.958 3.068 2.902 0 1.48-.947 2.786-3.068 2.974v1.306H8.19v-1.306z"/></g></g></svg>