<?xml version="1.0" encoding="UTF-8" standalone="no"?>
<svg width="12px" height="20px" viewBox="0 0 12 20" version="1.1" xmlns="http://www.w3.org/2000/svg" xmlns:xlink="http://www.w3.org/1999/xlink" xmlns:sketch="http://www.bohemiancoding.com/sketch/ns">
    <!-- Generator: Sketch 3.4.4 (17249) - http://www.bohemiancoding.com/sketch -->
    <title>m-arrow-right-brand</title>
    <desc>Created with Sketch.</desc>
    <defs></defs>
    <g id="Page-1" stroke="none" stroke-width="1" fill="none" fill-rule="evenodd" sketch:type="MSPage">
        <g id="m-arrow-right-brand" sketch:type="MSLayerGroup" transform="translate(-4.000000, 0.000000)">
            <g id="Page-1">
                <g id="m-arrow-right-brand">
                    <g id="icomoon-ignore"></g>
                    <path d="M5.61291016,19.9354883 C5.22582031,19.9354883 4.96775391,19.8064648 4.7096875,19.5483984 C4.19355468,19.0322656 4.19355468,18.2580664 4.7096875,17.7419531 L12.4516211,10.0000195 L4.7096875,2.25808593 C4.19355468,1.74195312 4.19355468,0.967753908 4.7096875,0.451640625 C5.22582031,-0.0644726563 6.00001953,-0.0644921875 6.51613281,0.451640625 L15.1612891,9.09679692 C15.4193555,9.35486325 15.5483789,9.61292967 15.5483789,10.0000195 C15.5483789,10.3871093 15.4193555,10.6451757 15.1612891,10.9032422 L6.51613281,19.5483984 C6.25806641,19.8064648 6,19.9354883 5.61291016,19.9354883 L5.61291016,19.9354883 L5.61291016,19.9354883 Z" id="Shape" fill="#002142" sketch:type="MSShapeGroup"></path>
                </g>
            </g>
        </g>
    </g>
</svg>